# xmcd
#
# Track frame offsets: 
#        150
#        14230
#        27184
#        41840
#        53519
#        67621
#        82519
#        96411
#        109743
#        122830
#        137421
#        149559
#        161974
#        175963
#        190952
#        203364
#        216598
#        228948
#        244022
#        257971
#
# Disc length: 3629 seconds
#
# Revision: 4
# Processed by: cddbd v1.5.2PL0 Copyright (c) Steve Scherf et al.
# Submitted via: ExactAudioCopy v0.99pb4
#
DISCID=1b0e2b14
DTITLE=Fats Waller - Squeeze Me  [CD 7-10]
DYEAR=1900
DGENRE=Jazz, Swing
TTITLE0=Wait And See
TTITLE1=You Meet The Nicest People In Your Dreams
TTITLE2=Anita
TTITLE3=What A Pretty Miss
TTITLE4=Squeeze Me  (1939-40)
TTITLE5=Bless You
TTITLE6=It's The Tune That Counts
TTITLE7=Abdullah
TTITLE8=Who'll Take My Place ¿
TTITLE9=Bond Street
TTITLE10=It's You Who Taught It To Me
TTITLE11=Suitcase Susie
TTITLE12=Your Feet's Too Big
TTITLE13=You're Lettin' The Grass Grow Under Your Feet
TTITLE14=The Darktown Strutters Ball
TTITLE15=I Can't Give You Anything But Love, Baby
TTITLE16=Swing-Dilla Street
TTITLE17=At Twilight
TTITLE18=Oh! Frenchy
TTITLE19=Cheatin' On Me
EXTD=
EXTT0=
EXTT1=
EXTT2=
EXTT3=
EXTT4=
EXTT5=
EXTT6=
EXTT7=
EXTT8=
EXTT9=
EXTT10=
EXTT11=
EXTT12=
EXTT13=
EXTT14=
EXTT15=
EXTT16=
EXTT17=
EXTT18=
EXTT19=
PLAYORDER=
